<?xml version="1.0"?>
<svg version="1.1" xmlns="http://www.w3.org/2000/svg" width="230" height="47" style="border: dashed 2px #aaa"><path fill="#" d="M15.92333984375,36.1240234375q0-0.52978515625,0.36328125-0.673583984375t0.787109375-0.143798828125q0.74169921875,0,1.25634765625,0.666015625t0.976318359375,1.460693359375t0.915771484375,1.460693359375t1.07470703125,0.666015625q0.46923828125,0,0.855224609375-0.234619140625t0.666015625-0.59033203125t0.431396484375-0.80224609375t0.1513671875-0.885498046875q0-1.150390625-0.461669921875-2.37646484375t-1.1806640625-2.52783203125t-1.521240234375-2.6640625t-1.513671875-2.77001953125t-1.1806640625-2.868408203125t-0.46923828125-2.944091796875q0-2.22509765625,1.33203125-3.451171875t3.51171875-1.22607421875q0.74169921875,0,1.49853515625,0.2119140625t1.392578125,0.6357421875t1.036865234375,1.04443359375t0.401123046875,1.453125q0,0.2724609375-0.401123046875,0.355712890625t-0.582763671875,0.083251953125q-0.2724609375,0-0.59033203125-0.068115234375t-0.40869140625-0.370849609375t-0.25732421875-0.6962890625t-0.416259765625-0.734130859375t-0.59033203125-0.59033203125t-0.749267578125-0.249755859375q-0.68115234375,0-1.157958984375,0.280029296875t-0.77197265625,0.749267578125t-0.43896484375,1.052001953125t-0.143798828125,1.203369140625q0,1.453125,0.49951171875,2.928955078125t1.2412109375,2.9365234375t1.612060546875,2.883544921875t1.612060546875,2.77001953125t1.2412109375,2.6337890625t0.49951171875,2.43701171875q0,1.029296875-0.484375,1.74072265625t-1.22607421875,1.157958984375t-1.642333984375,0.65087890625t-1.763427734375,0.204345703125q-0.92333984375,0-1.89208984375-0.370849609375t-1.74072265625-1.021728515625t-1.271484375-1.521240234375t-0.49951171875-1.884521484375z M29.541391601563,28.29833984375q0-0.89306640625,0.098388671875-2.16455078125t0.36328125-2.64892578125t0.71142578125-2.73974609375t1.142822265625-2.40673828125t1.6650390625-1.64990234375q0.80224609375-0.49951171875,1.8466796875-0.49951171875q0.2119140625,0,0.43896484375,0.0302734375q2.6337890625,0.2421875,4.049072265625,1.203369140625t2.066162109375,2.43701171875t0.7568359375,3.3603515625t0.10595703125,3.973388671875q0,1.68017578125-0.310302734375,3.655517578125t-1.097412109375,3.685791015625t-2.172119140625,2.853271484375t-3.519287109375,1.142822265625q-1.3017578125,0-2.278076171875-0.476806640625t-1.657470703125-1.271484375t-1.1201171875-1.8466796875t-0.666015625-2.1796875t-0.325439453125-2.278076171875t-0.098388671875-2.1796875z M32.614145507813,27.6171875q0,0.65087890625,0.01513671875,1.596923828125t0.128662109375,1.990478515625t0.295166015625,2.081298828125t0.537353515625,1.884521484375t0.900634765625,1.392578125t1.31689453125,0.5751953125l0.07568359375,0q0.6962890625,0,1.2412109375-0.52978515625q0.5751953125-0.56005859375,1.021728515625-1.34716796875t0.77197265625-1.657470703125t0.582763671875-1.490966796875l-0.060546875,0.13623046875q0.43896484375-1.392578125,0.59033203125-2.853271484375t0.1513671875-2.883544921875q0-0.68115234375-0.0908203125-1.642333984375t-0.295166015625-2.005615234375t-0.52978515625-2.066162109375t-0.824951171875-1.778564453125t-1.16552734375-1.150390625q-0.484375-0.28759765625-1.07470703125-0.302734375q-0.22705078125,0-0.4541015625,0.04541015625q-0.77197265625,0.1513671875-1.31689453125,0.7568359375t-0.885498046875,1.490966796875t-0.522216796875,1.9375t-0.280029296875,2.119140625t-0.113525390625,2.04345703125t-0.01513671875,1.657470703125z M39.440805664063,32.279296875l0-0.0302734375l0,0.0302734375z M45.944599609375,31.2197265625l0-2.3916015625q0-2.482421875,0.083251953125-4.927001953125t0.143798828125-4.927001953125q0-0.46923828125-0.0302734375-1.04443359375q-0.01513671875-0.16650390625-0.01513671875-0.31787109375q0-0.37841796875,0.060546875-0.74169921875q0.07568359375-0.484375,0.370849609375-0.83251953125t0.976318359375-0.34814453125q0.56005859375,0,0.855224609375,0.12109375t0.416259765625,0.355712890625t0.13623046875,0.59033203125t0.01513671875,0.824951171875q0,2.5126953125-0.060546875,5.04052734375q-0.04541015625,1.68017578125-0.04541015625,3.3603515625q0,0.84765625,0.01513671875,1.6953125q0.0302734375,2.5126953125,0.234619140625,5.025390625t0.688720703125,4.96484375q1.513671875-0.060546875,3.02734375-0.1513671875t3.02734375-0.0908203125q0.1513671875,0,0.431396484375,0.0302734375t0.56005859375,0.10595703125t0.476806640625,0.19677734375t0.19677734375,0.34814453125q0,0.1513671875-0.13623046875,0.25732421875t-0.25732421875,0.16650390625l-0.0302734375,0q-0.2421875,0.12109375-0.961181640625,0.234619140625t-1.634765625,0.174072265625t-1.92236328125,0.10595703125t-1.89208984375,0.07568359375t-1.536376953125,0.04541015625t-0.80224609375,0.01513671875l-0.13623046875,0q-0.36328125,0-0.8173828125-0.12109375q-0.544921875-0.1513671875-0.68115234375-0.59033203125q-0.2724609375-1.1201171875-0.431396484375-2.323486328125t-0.2421875-2.444580078125t-0.083251953125-2.482421875z M59.683745117187,17.88427734375q0-0.2421875,0.174072265625-0.401123046875t0.40869140625-0.249755859375t0.5146484375-0.12109375t0.491943359375-0.0302734375q0.43896484375,0,0.930908203125,0.12109375t0.734130859375,0.52978515625q0.43896484375,0.74169921875,0.643310546875,1.763427734375t0.385986328125,1.960205078125q0.2724609375,1.3017578125,0.6962890625,2.724609375t0.885498046875,2.898681640625t0.946044921875,2.898681640625t0.84765625,2.6640625q0.43896484375-1.83154296875,0.809814453125-3.75390625t0.71142578125-3.8447265625t0.71142578125-3.8447265625t0.809814453125-3.76904296875q0.0908203125-0.43896484375,0.13623046875-1.10498046875t0.189208984375-1.28662109375t0.416259765625-1.067138671875t0.83251953125-0.446533203125q0.59033203125,0,0.794677734375,0.325439453125t0.204345703125,0.946044921875q-0.1513671875,1.71044921875-0.491943359375,3.390625t-0.628173828125,3.3603515625q-0.40869140625,2.07373046875-0.885498046875,4.155029296875t-0.89306640625,4.170166015625t-0.71142578125,4.185302734375t-0.355712890625,4.200439453125q0.0302734375,0.0908203125,0.0908203125,0.2119140625t0.060546875,0.181640625q0,0.181640625-0.16650390625,0.340576171875t-0.416259765625,0.2724609375t-0.544921875,0.174072265625t-0.552490234375,0.060546875q-0.2421875,0-0.552490234375-0.0302734375t-0.62060546875-0.113525390625t-0.544921875-0.219482421875t-0.295166015625-0.34814453125q-0.2421875-0.71142578125-0.446533203125-1.385009765625t-0.385986328125-1.385009765625q-0.86279296875-3.10302734375-1.808837890625-6.092529296875t-1.748291015625-6.077392578125q-0.37841796875-1.392578125-0.567626953125-2.732177734375t-0.613037109375-2.641357421875q0.060546875,0.12109375,0.060546875,0.19677734375q-0.060546875-0.2119140625-0.12109375-0.401123046875t-0.13623046875-0.416259765625q0,0.060546875,0.01513671875,0.07568359375t0.01513671875,0.04541015625q0-0.0302734375-0.01513671875-0.04541015625t-0.01513671875-0.04541015625z M76.0566796875,37.365234375q0.0302734375-0.6357421875,0.0302734375-1.2412109375q0-2.19482421875,0.158935546875-4.37451171875t0.219482421875-4.37451171875q0.0908203125-2.5126953125,0.16650390625-4.97998046875t0.302734375-4.96484375q0.060546875-0.62060546875,0.355712890625-0.809814453125t0.885498046875-0.189208984375q0.2724609375,0,0.7265625,0.10595703125t0.4541015625,0.5146484375q0.2119140625,0.0302734375,0.423828125,0.0302734375q0.31787109375,0,0.65087890625-0.060546875q0.544921875-0.0908203125,1.112548828125-0.204345703125t1.127685546875-0.219482421875t1.07470703125-0.10595703125q0.12109375,0,0.340576171875,0.01513671875t0.43896484375,0.0908203125t0.370849609375,0.189208984375t0.1513671875,0.295166015625t-0.355712890625,0.325439453125t-0.930908203125,0.249755859375t-1.2412109375,0.181640625t-1.3017578125,0.128662109375t-1.127685546875,0.083251953125t-0.703857421875,0.0302734375l-0.0302734375,5.69140625l0.0302734375,2.83056640625q0.46923828125,0,1.40771484375-0.0302734375q0.37841796875-0.01513671875,0.7568359375-0.01513671875q0.5751953125,0,1.1806640625,0.0302734375q0.9990234375,0.04541015625,1.80126953125,0.181640625t1.01416015625,0.484375q0,0.2119140625-0.219482421875,0.340576171875t-0.491943359375,0.189208984375t-0.552490234375,0.07568359375t-0.401123046875,0.01513671875q-1.1201171875,0-2.25537109375-0.04541015625t-2.240234375-0.181640625q0,1.86181640625-0.098388671875,3.693359375t-0.098388671875,3.693359375q0,0.80224609375,0.01513671875,1.581787109375t0.181640625,1.551513671875q0.40869140625-0.0302734375,0.885498046875-0.07568359375t0.96875-0.113525390625t0.946044921875-0.113525390625t0.787109375-0.04541015625q0.181640625,0,0.491943359375,0.04541015625t0.6357421875,0.1513671875t0.56005859375,0.264892578125t0.234619140625,0.370849609375q0,0.2421875-0.446533203125,0.431396484375t-1.142822265625,0.302734375t-1.521240234375,0.158935546875t-1.596923828125,0.060546875t-1.392578125,0.01513671875l-0.8779296875,0q-0.83251953125,0-1.218505859375-0.310302734375t-0.537353515625-0.809814453125q-0.12109375-0.40869140625-0.10595703125-0.92333984375l0-0.2119140625z M88.660571289062,30.4326171875q-0.01513671875-0.060546875-0.01513671875-0.12109375q0-1.57421875,0.19677734375-3.26953125q0.2119140625-1.77099609375,0.658447265625-3.5419921875t1.2109375-3.208984375t1.86181640625-2.384033203125t2.656494140625-1.127685546875q0.2724609375-0.0302734375,0.56005859375-0.0302734375q0.77197265625,0,1.58935546875,0.2421875q1.13525390625,0.31787109375,1.8466796875,1.1201171875q0.80224609375,0.060546875,1.28662109375,0.6357421875t0.7265625,1.392578125t0.355712890625,1.687744140625t0.174072265625,1.521240234375q0.1513671875,1.4228515625,0.19677734375,3.087890625q0.01513671875,0.31787109375,0.01513671875,0.65087890625q0,1.33203125-0.1513671875,2.67919921875q-0.181640625,1.6953125-0.65087890625,3.292236328125t-1.3017578125,2.883544921875t-2.119140625,2.156982421875t-3.1181640625,1.052001953125q1.57421875,0.71142578125,3.080322265625,1.506103515625t3.110595703125,1.354736328125q0.1513671875,0.060546875,0.416259765625,0.0908203125t0.52978515625,0.10595703125t0.46923828125,0.181640625t0.234619140625,0.3330078125q0,0.181640625-0.189208984375,0.31787109375t-0.4541015625,0.249755859375t-0.522216796875,0.174072265625t-0.3935546875,0.0908203125l-0.2421875,0l-0.385986328125,0t-0.355712890625-0.0302734375t-0.181640625-0.0908203125q-0.77197265625-0.0908203125-1.80126953125-0.544921875t-2.096435546875-1.036865234375t-2.0888671875-1.157958984375t-1.823974609375-0.92333984375l-0.16650390625-0.423828125q0.060546875-0.12109375,0.219482421875-0.219482421875t0.310302734375-0.158935546875q-0.95361328125-0.302734375-1.58935546875-0.908203125t-1.029296875-1.385009765625t-0.60546875-1.6650390625t-0.302734375-1.778564453125q-0.12109375-1.1806640625-0.12109375-2.80029296875z M91.597094726562,30.462890625q0.0302734375,1.25634765625,0.12109375,2.1494140625q0.0302734375,0.46923828125,0.174072265625,1.16552734375t0.370849609375,1.40771484375t0.552490234375,1.31689453125t0.734130859375,0.89306640625q0.2724609375,0.1513671875,0.537353515625,0.22705078125t0.522216796875,0.22705078125q0.37841796875-0.0302734375,0.6357421875-0.16650390625t0.60546875-0.19677734375l0.0302734375-0.0302734375q1.08984375-0.49951171875,1.86181640625-1.445556640625t1.279052734375-2.141845703125t0.787109375-2.5732421875t0.385986328125-2.7548828125q0.07568359375-1.07470703125,0.07568359375-2.0888671875l0-0.5751953125q-0.0302734375-1.28662109375-0.12109375-2.31591796875q-0.12109375-0.95361328125-0.2421875-1.899658203125t-0.46923828125-1.854248046875q-0.62060546875,0.1513671875-0.915771484375,0.0908203125t-0.537353515625-0.65087890625q-0.0908203125,0-0.204345703125-0.04541015625t-0.143798828125-0.16650390625q0-0.0908203125,0.060546875-0.1513671875q-0.62060546875-0.62060546875-1.3017578125-0.71142578125q-0.28759765625-0.04541015625-0.6357421875-0.04541015625q-0.43896484375,0-0.96875,0.07568359375l-0.0302734375,0q-0.77197265625,0.56005859375-1.31689453125,1.596923828125t-0.915771484375,2.353759765625t-0.59033203125,2.77001953125t-0.295166015625,2.8759765625q-0.060546875,0.9990234375-0.060546875,1.9375q0,0.36328125,0.01513671875,0.7265625z M95.093676757812,39.0908203125q0.07568359375-0.0302734375,0.22705078125-0.0302734375q-0.060546875,0-0.10595703125,0.01513671875t-0.12109375,0.01513671875z M105.51788085937,38.65185546875q0-0.0908203125,0.060546875-0.643310546875t0.158935546875-1.34716796875t0.219482421875-1.71044921875t0.2119140625-1.733154296875t0.158935546875-1.43798828125t0.068115234375-0.83251953125q-0.12109375-0.060546875-0.295166015625-0.174072265625t-0.174072265625-0.264892578125q0-0.2119140625,0.204345703125-0.340576171875t0.355712890625-0.189208984375q0.060546875-0.77197265625,0.1513671875-2.1494140625t0.280029296875-2.974365234375t0.52978515625-3.2392578125t0.900634765625-2.98193359375t1.34716796875-2.187255859375t1.9375-0.84765625t1.9072265625,0.7265625t1.233642578125,1.89208984375t0.7265625,2.58837890625t0.37841796875,2.83056640625t0.158935546875,2.6337890625t0.060546875,1.9677734375q0.0302734375,0.46923828125,0.22705078125,0.628173828125t0.431396484375,0.219482421875t0.423828125,0.13623046875t0.189208984375,0.37841796875q0,0.34814453125-0.423828125,0.484375t-0.666015625,0.16650390625q0.1513671875,1.89208984375,0.416259765625,3.7236328125t0.703857421875,3.693359375q0.060546875,0.34814453125,0.16650390625,0.703857421875t0.10595703125,0.688720703125q0,0.2421875-0.16650390625,0.401123046875t-0.431396484375,0.249755859375t-0.52978515625,0.12109375t-0.446533203125,0.0302734375q-0.68115234375,0-1.150390625-0.25732421875t-0.62060546875-0.98388671875q-0.40869140625-1.95263671875-0.80224609375-4.10205078125q-0.3330078125-1.86181640625-0.3330078125-3.61767578125q0-0.2724609375,0.01513671875-0.544921875q-1.271484375,0-2.55810546875,0.060546875t-2.46728515625,0.4541015625q-0.0302734375,0.40869140625-0.1513671875,1.5439453125t-0.2724609375,2.43701171875t-0.310302734375,2.489990234375t-0.189208984375,1.687744140625q-0.0302734375,0.2119140625-0.310302734375,0.401123046875t-0.60546875,0.204345703125t-0.5751953125-0.204345703125t-0.249755859375-0.779541015625z M108.34844726562,29.47900390625q1.1806640625-0.2724609375,2.368896484375-0.31787109375t2.399169921875-0.10595703125q-0.060546875-0.37841796875-0.0302734375-0.779541015625t0.0302734375-0.809814453125q0-0.89306640625-0.04541015625-2.07373046875t-0.13623046875-2.3916015625t-0.234619140625-2.384033203125t-0.325439453125-2.0888671875t-0.385986328125-1.460693359375t-0.446533203125-0.544921875q-0.46923828125,0.0302734375-0.885498046875,0.809814453125t-0.7568359375,1.98291015625t-0.62060546875,2.6943359375t-0.46923828125,2.913818359375t-0.310302734375,2.64892578125t-0.1513671875,1.9072265625z M121.08856933594,38.13720703125q0-0.37841796875,0.04541015625-0.764404296875t0.04541015625-0.764404296875l0-0.2421875q0-0.46923828125,0.385986328125-0.59033203125t0.794677734375-0.12109375q0.46923828125,0,0.900634765625,0.19677734375t0.431396484375,0.7568359375q0.0908203125,0.2724609375,0.0908203125,0.65087890625l0,0.71142578125q0,0.52978515625-0.370849609375,0.734130859375t-0.991455078125,0.204345703125q-0.43896484375,0-0.885498046875-0.158935546875t-0.446533203125-0.613037109375z M127.22908203125,33.05126953125q0-1.08984375,0.280029296875-2.187255859375t0.870361328125-1.9677734375t1.506103515625-1.415283203125t2.156982421875-0.544921875q0.52978515625,0,1.16552734375,0.128662109375t1.173095703125,0.40869140625t0.908203125,0.7265625t0.370849609375,1.097412109375q0,0.40869140625-0.2119140625,0.544921875t-0.56005859375,0.13623046875l-0.10595703125-0.1513671875t-0.295166015625-0.385986328125t-0.401123046875-0.49951171875t-0.40869140625-0.446533203125q-0.62060546875-0.62060546875-1.16552734375-0.666015625l-0.12109375,0q-0.4541015625,0-0.84765625,0.2724609375q-0.43896484375,0.3330078125-0.779541015625,0.9384765625t-0.567626953125,1.28662109375t-0.355712890625,1.37744140625t-0.128662109375,1.150390625q0,0.62060546875,0.143798828125,1.415283203125t0.484375,1.506103515625t0.86279296875,1.19580078125t1.339599609375,0.484375q0.74169921875,0,1.34716796875-0.36328125t1.157958984375-0.809814453125t1.082275390625-0.80224609375t1.08984375-0.355712890625q0.2421875,0,0.491943359375,0.060546875t0.249755859375,0.31787109375l0,0.0908203125q-0.2724609375,0.71142578125-0.92333984375,1.25634765625t-1.460693359375,0.946044921875t-1.68017578125,0.597900390625t-1.551513671875,0.19677734375q-1.271484375,0-2.232666015625-0.416259765625t-1.596923828125-1.142822265625t-0.961181640625-1.748291015625t-0.325439453125-2.232666015625z M140.13570800781,33.6416015625q0-0.86279296875,0.219482421875-1.778564453125t0.6962890625-1.64990234375t1.203369140625-1.19580078125t1.755859375-0.461669921875q0.77197265625,0,1.627197265625,0.264892578125t1.566650390625,0.7568359375t1.157958984375,1.203369140625t0.446533203125,1.58935546875q0,1.0595703125-0.385986328125,2.01318359375t-1.082275390625,1.702880859375t-1.627197265625,1.1806640625t-2.020751953125,0.431396484375q-0.89306640625,0-1.55908203125-0.325439453125t-1.112548828125-0.870361328125t-0.666015625-1.28662109375t-0.219482421875-1.57421875z M142.36080566406,33.611328125q0,0.2724609375,0.083251953125,0.80224609375t0.249755859375,1.036865234375t0.431396484375,0.8779296875t0.643310546875,0.340576171875q0.80224609375-0.0908203125,1.324462890625-0.522216796875t0.84765625-1.052001953125t0.4541015625-1.34716796875t0.128662109375-1.37744140625q0-0.83251953125-0.325439453125-1.392578125t-1.067138671875-0.908203125q0,0.0302734375,0.0302734375,0.0302734375t0.0302734375-0.0302734375l-0.37841796875-0.0908203125q-0.1513671875-0.060546875-0.370849609375-0.13623046875t-0.431396484375-0.3330078125q-0.59033203125,0.2119140625-0.915771484375,0.544921875t-0.491943359375,0.809814453125t-0.204345703125,1.142822265625t-0.037841796875,1.6044921875z M151.6421875,29.562255859375q-0.037841796875-0.507080078125,0.060546875-0.930908203125t0.3935546875-0.688720703125t0.946044921875-0.264892578125q0.1513671875,0,0.370849609375,0.037841796875t0.431396484375,0.098388671875t0.355712890625,0.181640625t0.143798828125,0.3330078125l0,1.71044921875q0.59033203125-0.68115234375,1.28662109375-0.976318359375t1.58935546875-0.295166015625q0.68115234375,0,1.34716796875,0.310302734375t1.25634765625,0.824951171875t1.021728515625,1.13525390625t0.628173828125,1.2412109375q0.12109375-0.56005859375,0.2724609375-1.369873046875t0.446533203125-1.551513671875t0.779541015625-1.271484375t1.28662109375-0.52978515625q0.86279296875,0,1.453125,0.62060546875t0.961181640625,1.612060546875t0.56005859375,2.217529296875t0.280029296875,2.421875t0.0908203125,2.232666015625l0,1.627197265625q0,0.181640625-0.13623046875,0.295166015625t-0.340576171875,0.174072265625t-0.423828125,0.07568359375t-0.340576171875,0.01513671875q-0.46923828125,0-0.855224609375-0.143798828125t-0.385986328125-0.734130859375l0-1.3623046875t-0.0302734375-1.763427734375t-0.10595703125-1.89208984375t-0.19677734375-1.718017578125t-0.310302734375-1.2412109375t-0.461669921875-0.484375q-0.37841796875,0-0.544921875,0.423828125t-0.280029296875,1.07470703125t-0.174072265625,1.37744140625t-0.16650390625,1.37744140625t-0.340576171875,1.067138671875t-0.643310546875,0.416259765625q-0.43896484375,0-0.77197265625-0.416259765625t-0.658447265625-1.036865234375t-0.65087890625-1.33203125t-0.718994140625-1.33203125q-0.3935546875-0.6357421875-0.84765625-1.029296875q-0.40869140625-0.37841796875-0.92333984375-0.36328125l-0.07568359375,0q-0.68115234375,0.0302734375-1.067138671875,0.491943359375t-0.59033203125,1.127685546875t-0.249755859375,1.430419921875t-0.04541015625,1.339599609375q0,0.544921875,0.0908203125,1.271484375q0.060546875,0.484375,0.060546875,0.92333984375q0,0.22705078125-0.01513671875,0.43896484375q-0.04541015625,0.6357421875-0.340576171875,1.067138671875t-1.097412109375,0.431396484375q-0.302734375,0-0.7568359375-0.060546875t-0.60546875-0.40869140625q-0.34814453125-0.62060546875-0.52978515625-1.566650390625t-0.2724609375-1.95263671875t-0.10595703125-1.998046875t-0.01513671875-1.702880859375q0-0.49951171875-0.037841796875-1.006591796875z"/><path fill="#" d=""/></svg>
